<svg width="33" height="44" viewBox="0 0 33 44" fill="none" xmlns="http://www.w3.org/2000/svg">
<path d="M7.30114 35V32.6989L21.4148 11.6307H7.14773V8.81818H25.1989V11.1193L11.0852 32.1875H25.3523V35H7.30114Z" fill="white"/>
<path d="M2.30114 35V32.6989L16.4148 11.6307H2.14773V8.81818H20.1989V11.1193L6.08523 32.1875H20.3523V35H2.30114Z" fill="white"/>
<path d="M18.626 26.716C19.154 26.716 19.538 26.826 19.778 27.046C20.018 27.266 20.138 27.576 20.138 27.976C20.138 28.152 20.11 28.322 20.054 28.486C20.002 28.646 19.914 28.79 19.79 28.918C19.666 29.046 19.5 29.148 19.292 29.224C19.088 29.296 18.836 29.332 18.536 29.332H18.08V31H17.546V26.716H18.626ZM18.584 27.178H18.08V28.87H18.476C18.724 28.87 18.93 28.842 19.094 28.786C19.258 28.726 19.38 28.632 19.46 28.504C19.544 28.376 19.586 28.208 19.586 28C19.586 27.724 19.504 27.518 19.34 27.382C19.18 27.246 18.928 27.178 18.584 27.178ZM22.3357 27.724C22.3917 27.724 22.4517 27.728 22.5157 27.736C22.5797 27.74 22.6357 27.748 22.6837 27.76L22.6237 28.246C22.5757 28.234 22.5217 28.224 22.4617 28.216C22.4057 28.208 22.3517 28.204 22.2997 28.204C22.1837 28.204 22.0737 28.23 21.9697 28.282C21.8657 28.334 21.7717 28.408 21.6877 28.504C21.6077 28.596 21.5437 28.708 21.4957 28.84C21.4477 28.972 21.4237 29.12 21.4237 29.284V31H20.9017V27.784H21.3277L21.3877 28.372H21.4117C21.4757 28.252 21.5517 28.144 21.6397 28.048C21.7317 27.948 21.8357 27.87 21.9517 27.814C22.0677 27.754 22.1957 27.724 22.3357 27.724ZM25.7802 29.386C25.7802 29.654 25.7462 29.892 25.6782 30.1C25.6142 30.304 25.5202 30.478 25.3962 30.622C25.2722 30.766 25.1222 30.876 24.9462 30.952C24.7702 31.024 24.5742 31.06 24.3582 31.06C24.1582 31.06 23.9722 31.024 23.8002 30.952C23.6322 30.876 23.4842 30.766 23.3562 30.622C23.2322 30.478 23.1362 30.304 23.0682 30.1C23.0002 29.892 22.9662 29.654 22.9662 29.386C22.9662 29.03 23.0222 28.73 23.1342 28.486C23.2502 28.238 23.4142 28.05 23.6262 27.922C23.8382 27.79 24.0882 27.724 24.3762 27.724C24.6522 27.724 24.8942 27.79 25.1022 27.922C25.3142 28.05 25.4802 28.238 25.6002 28.486C25.7202 28.73 25.7802 29.03 25.7802 29.386ZM23.5062 29.386C23.5062 29.638 23.5362 29.858 23.5962 30.046C23.6562 30.23 23.7502 30.372 23.8782 30.472C24.0062 30.572 24.1702 30.622 24.3702 30.622C24.5702 30.622 24.7342 30.572 24.8622 30.472C24.9902 30.372 25.0842 30.23 25.1442 30.046C25.2082 29.858 25.2402 29.638 25.2402 29.386C25.2402 29.13 25.2082 28.912 25.1442 28.732C25.0842 28.552 24.9902 28.414 24.8622 28.318C24.7342 28.218 24.5682 28.168 24.3642 28.168C24.0642 28.168 23.8462 28.276 23.7102 28.492C23.5742 28.708 23.5062 29.006 23.5062 29.386Z" fill="white"/>
</svg>
